<?xml version="1.0" encoding="UTF-8"?>
<svg version="1.1" xmlns="http://www.w3.org/2000/svg" width="64" height="64">
<path d="M0 0 C2.18626525 -0.00436138 4.37048936 -0.04068317 6.55639648 -0.07861328 C15.16194634 -0.14919395 21.60164043 0.2382368 28.41381836 6.11669922 C29.0828418 6.95394531 29.0828418 6.95394531 29.76538086 7.80810547 C30.22686523 8.36369141 30.68834961 8.91927734 31.16381836 9.49169922 C35.3177178 15.85483817 34.76261958 22.6689524 34.76098633 29.98022461 C34.76534771 32.16648986 34.8016695 34.35071397 34.83959961 36.53662109 C34.91018028 45.14217095 34.52274953 51.58186504 28.64428711 58.39404297 C28.08612305 58.84005859 27.52795898 59.28607422 26.95288086 59.74560547 C26.39729492 60.20708984 25.84170898 60.66857422 25.26928711 61.14404297 C18.90614816 65.29794241 12.09203393 64.74284419 4.78076172 64.74121094 C2.59449647 64.74557232 0.41027235 64.78189411 -1.77563477 64.81982422 C-10.38118462 64.89040489 -16.82087871 64.50297414 -23.63305664 58.62451172 C-24.07907227 58.06634766 -24.52508789 57.50818359 -24.98461914 56.93310547 C-25.44610352 56.37751953 -25.90758789 55.82193359 -26.38305664 55.24951172 C-30.53695608 48.88637277 -29.98185787 42.07225854 -29.98022461 34.76098633 C-29.98458599 32.57472108 -30.02090778 30.39049696 -30.05883789 28.20458984 C-30.12941856 19.59903999 -29.74198781 13.1593459 -23.86352539 6.34716797 C-23.30536133 5.90115234 -22.74719727 5.45513672 -22.17211914 4.99560547 C-21.6165332 4.53412109 -21.06094727 4.07263672 -20.48852539 3.59716797 C-14.12538644 -0.55673147 -7.31127221 -0.00163326 0 0 Z " fill="#000101" transform="translate(29.609619140625,-0.37060546875)"/>
<path d="M0 0 C9.1034143 -0.32753025 9.1034143 -0.32753025 13.50390625 2.1171875 C15.8534503 6.63554145 16.04135127 10.25712203 15.12890625 15.2421875 C12.42340904 22.67932522 7.46494189 27.97093074 0.50390625 31.6171875 C-2.05083937 32.28948898 -4.24115834 32.28587413 -6.87109375 32.2421875 C-5.53776042 23.57552083 -4.20442708 14.90885417 -2.87109375 6.2421875 C-4.52109375 6.5721875 -6.17109375 6.9021875 -7.87109375 7.2421875 C-7.92007812 7.96921875 -7.9690625 8.69625 -8.01953125 9.4453125 C-8.56650161 16.8011208 -9.54619639 23.98740974 -10.87109375 31.2421875 C-14.83109375 31.7371875 -14.83109375 31.7371875 -18.87109375 32.2421875 C-17.60583524 23.89686538 -16.2806185 15.56438149 -14.87109375 7.2421875 C-15.86109375 7.2421875 -16.85109375 7.2421875 -17.87109375 7.2421875 C-17.87109375 5.2621875 -17.87109375 3.2821875 -17.87109375 1.2421875 C-11.9190045 0.73562671 -5.96133553 0.37295944 0 0 Z " fill="#03AFDA" transform="translate(33.87109375,15.7578125)"/>
<path d="M0 0 C0 1.98 0 3.96 0 6 C-1.65 6.33 -3.3 6.66 -5 7 C-5.04898437 7.72703125 -5.09796875 8.4540625 -5.1484375 9.203125 C-5.69540786 16.5589333 -6.67510264 23.74522224 -8 31 C-11.96 31.495 -11.96 31.495 -16 32 C-14.73474149 23.65467788 -13.40952475 15.32219399 -12 7 C-12.99 7 -13.98 7 -15 7 C-15 5.02 -15 3.04 -15 1 C-12.68753088 0.83290546 -10.37502385 0.66633538 -8.0625 0.5 C-6.77472656 0.4071875 -5.48695312 0.314375 -4.16015625 0.21875 C-1 0 -1 0 0 0 Z " fill="#03B1DC" transform="translate(31,16)"/>
<path d="M0 0 C1.32 0.33 2.64 0.66 4 1 C4.52210131 7.13469039 3.08765722 11.67146781 0 17 C-1.63671875 18.765625 -1.63671875 18.765625 -3 20 C-2.33644956 13.25390382 -1.28134207 6.65551466 0 0 Z " fill="#000C0F" transform="translate(38,22)"/>
<path d="M0 0 C0.33 0.99 0.66 1.98 1 3 C4.465 2.505 4.465 2.505 8 2 C7.67 2.66 7.34 3.32 7 4 C4.35139573 4.59355614 1.70802678 4.74209269 -1 5 C-0.67 3.35 -0.34 1.7 0 0 Z " fill="#03A6CE" transform="translate(28,43)"/>
</svg>
