<svg xmlns="http://www.w3.org/2000/svg" version="1.0" viewBox="0 0 52 25"><path fill="#000040" fill-opacity=".1" d="M8.2 16.5c0 1.6.2 2.2.5 1.2.2-.9.2-2.3 0-3-.3-.6-.5.1-.5 1.8"/><path fill="#404080" fill-opacity=".8" d="M14.8 2.7c.6.2 1.8.2 2.5 0 .6-.3.1-.5-1.3-.5s-1.9.2-1.2.5M37 3c.8.5 2 1 2.5 1 .6 0 .3-.5-.5-1s-1.9-1-2.5-1c-.5 0-.3.5.5 1"/><path fill="#404080" fill-opacity=".9" d="M16.5 3c-1.5.6-.5.9 3.5.9 3.1.1 6.2.7 7 1.3 1.2 1.1 1.2 1 .2-.4-1.2-1.5-.7-1.6 5-1.1 4.6.3 5.9.2 4.8-.6-1.8-1.3-17.6-1.3-20.5-.1m27.9 7c0 1.3.4 1.6 1 1 .7-.7.7-1.3 0-2-.6-.6-1-.3-1 1m-20.2 4c0 1.4.2 1.9.5 1.2.2-.6.2-1.8 0-2.5-.3-.6-.5-.1-.5 1.3m4.7 2.3c.5.5 1.9.7 3.2.5 2-.3 1.9-.5-.9-.9-2-.3-2.9-.2-2.3.4"/><path fill="#000040" fill-opacity=".3" d="M7.3 15.9c-.1 3.5-.1 3.5.6.6.4-1.9 1.2-2.9 2.2-2.7.8.2 1 0 .6-.4-2-2-3.3-1-3.4 2.5"/><path fill="#408080" fill-opacity=".9" d="M42 5.4c0 .2.8 1 1.8 1.7 1.5 1.3 1.6 1.2.3-.4S42 4.6 42 5.4M38.3 14c.2 2.6 1.6 4.2 2.9 3.4 1.4-.9.9-3.4-.6-3.4-.8 0-1.7-.6-2-1.3-.2-.6-.4-.1-.3 1.3M15 15.5c0 .8.4 1.5.9 1.5s1.4-.7 2.1-1.5c1-1.3.9-1.5-.9-1.5-1.2 0-2.1.6-2.1 1.5"/><path fill="#404040" fill-opacity=".9" d="M13.5 4c-.3.5-.1 1 .4 1 .6 0 1.1-.5 1.1-1 0-.6-.2-1-.4-1-.3 0-.8.4-1.1 1m12.8-.4c.3.4.2 1.4-.3 2.3-.5 1.1-.5 2.3.2 3.2.8 1.2.9 1.1.5-.2-.3-.9.1-2.6.9-3.8C29 3.2 28.9 3 27.4 3c-1 0-1.4.3-1.1.6M43 14.7c-2.1 3.5-2.1 3.7-.2 2 1.7-1.6 3.7-5.7 2.7-5.7-.2 0-1.3 1.7-2.5 3.7m-29.9.9c0 1.1.3 1.4.6.6.3-.7.2-1.6-.1-1.9-.3-.4-.6.2-.5 1.3m5 2c0 1.1.3 1.4.6.6.3-.7.2-1.6-.1-1.9-.3-.4-.6.2-.5 1.3m-3.8 3.1c.9.2 2.3.2 3 0 .6-.3-.1-.5-1.8-.5-1.6 0-2.2.2-1.2.5m11.4 0c1.8.2 5 .2 7 0 2.1-.2.7-.4-3.2-.4-3.8 0-5.5.2-3.8.4"/><path fill="#004080" fill-opacity=".4" d="M43 4.4c0 .2.8 1 1.8 1.7 1.5 1.3 1.6 1.2.3-.4S43 3.6 43 4.4"/><path fill="gray" fill-opacity=".8" d="M7.8 4.7c.6.2 1.8.2 2.5 0 .6-.3.1-.5-1.3-.5s-1.9.2-1.2.5"/><path fill="gray" fill-opacity=".9" d="M11.3 5.5c0 .8.4 1.2.9.9.4-.3.8-.9.8-1.5 0-.5-.4-.9-.8-.9-.5 0-.9.7-.9 1.5m3.4-.8c-.3.5 1.6.7 4.1.5 7.3-.5 8.2-1 2-1.1-3.1 0-5.9.2-6.1.6m19.6.2c5.2.5 7.2 1.1 8.3 2.5.8 1.1 1.4 1.5 1.4.8 0-2.5-4.4-4.2-10.5-4l-6 .1zM23.5 6.7c-3.1.7-4 2.1-1.1 1.6 1.5-.3 2.9-.9 3.2-1.4s.4-.8.2-.8c-.2.1-1.2.3-2.3.6M27 7c0 .3.6 1.2 1.3 1.9.8 1 .8 1.2 0 .7-1.5-.8-2.5.8-3.9 6.1L23.3 20h3.6c2 0 3.1-.4 2.4-.8-.6-.4-1-2.1-.9-3.7.3-2.7.3-2.8-1-1s-1.4 1.7-1.4-.9c0-2 .4-2.7 1.4-2.3.9.4 1.7-.2 2.1-1.3.4-1.2 1.7-2 3.8-2.2 2.7-.3 2.4-.4-1.5-.8-2.7-.3-4.8-.3-4.8 0m-12.9 6.2c0 2-.4 4.3-.7 5.2-.5 1.2 0 1.6 2 1.6 1.9 0 2.6-.5 2.6-2 0-1.3-.5-1.8-1.5-1.4-.9.4-1.5 0-1.5-.9s1-1.8 2.3-2c2.2-.4 2.2-.4 0-.6-1.2 0-2.4-.9-2.6-1.9-.3-.9-.5 0-.6 2m27.5-.3c-1.7.6-1.7.8-.4 1.4 1 .3 1.9 0 2.2-.9.3-.8.4-1.4.3-1.3-.1 0-1.1.4-2.1.8m-6 3.8c-1.5 1.5-2.4 2.9-1.8 3.1 1.4.4 6.9-2 5.5-2.5-.7-.2-.9-1.1-.6-1.9.8-2.1-.1-1.7-3.1 1.3"/><path fill="#BFBFBF" fill-opacity=".9" d="M7.5 6c-.3.5.3 1 1.4 1s2.3-.5 2.6-1c.3-.6-.3-1-1.4-1s-2.3.4-2.6 1m7.4-.5c-.3.2-.3 1.9-.1 3.8.5 4.3 3.4 4.7 4.9.6C20.5 8 21.5 7 22.9 7c1.2 0 2.1-.5 2.1-1 0-1-9.2-1.5-10.1-.5M28 6c0 .5 2 1 4.4 1 3.6 0 4.8.5 6.4 2.7 1.2 1.7 2.5 2.4 3.5 2 2.2-.8 1.1-4.2-1.9-5.6C37.3 4.7 28 4.6 28 6m-2 6c0 .5.5 1 1 1 .6 0 1-.5 1-1 0-.6-.4-1-1-1-.5 0-1 .4-1 1"/><path fill="#8080BF" fill-opacity=".9" d="M42 12c-.9.6-1 1-.3 1 .6 0 1.5-.5 1.8-1 .8-1.2.4-1.2-1.5 0m-14 5.9c0 1.9 4.2 2.3 5.8.7 1.5-1.5 1.3-1.6-2.1-1.6-2 0-3.7.4-3.7.9"/><path fill="#004040" fill-opacity=".9" d="M21 8.4c0 .2.9.6 2 .9s2 .1 2-.4-.9-.9-2-.9-2 .2-2 .4m9.5.6c-.4.7.3.8 2.2.4 3.8-.9 4.2-1.4 1-1.4-1.4 0-2.9.5-3.2 1M20 10.9c0 .6.4 1.2.8 1.5.5.3.9-.1.9-.9s-.4-1.5-.9-1.5c-.4 0-.8.4-.8.9M34.5 15c-.3.5-.2 1 .4 1 .5 0 1.3-.5 1.6-1 .3-.6.2-1-.4-1-.5 0-1.3.4-1.6 1m6.6 3c-1.8 1.7-2.9 3-2.4 3s2.2-1.4 3.8-3c3.7-3.8 3-3.8-1.4 0m-17.6 3-13 .6 13.3.2c8.3.1 13.2-.2 13.2-.8s-.1-.9-.2-.8c-.2.1-6.1.5-13.3.8"/><path fill="#000040" fill-opacity=".9" d="M12 13.4c0 .7-.3 2.8-.6 4.5-.4 1.7-.3 3.1.2 3.1s1-2 1.2-4.5c.1-2.5 0-4.5-.3-4.5s-.5.6-.5 1.4m8.5.7c.4 1.3.3 1.9-.2 1.6-.6-.4-.8.3-.6 1.7.5 2.3 3.3 3.2 3.3 1 0-.7.2-1.8.5-2.6.3-.7-.4-1.9-1.6-2.6-1.9-1.2-2-1.2-1.4.9m9 .9c-.4.6.6 1 2.2 1 2.2 0 2.5-.2 1.3-1-1.9-1.2-2.7-1.2-3.5 0"/><path fill="#000040" fill-opacity=".4" d="M5.8 9.7c.7.3 1.6.2 1.9-.1.4-.3-.2-.6-1.3-.5-1.1 0-1.4.3-.6.6M7 19.9c0 .5.7 1.1 1.5 1.5.8.3 1.5.1 1.5-.3 0-.5-.7-1.1-1.5-1.5-.8-.3-1.5-.1-1.5.3"/><path fill="#004080" fill-opacity=".9" d="M22.8 9.7c.6.2 1.2.9 1.2 1.5s-.7.8-1.4.5q-1.5-.6-.9.9c.5 1.4.7 1.4 2.1.1 1.5-1.6.9-3.8-1.1-3.6-.9 0-.9.2.1.6m8.6.1c-.6.4-1.4 1.6-1.8 2.7s-.4 1.6 0 1.3c.4-.4 1.4-.3 2.4.2 2.4 1.3 6 .1 6-2 0-2.5-4.1-3.9-6.6-2.2m5.2 1.3c.6 1-1.1 2.9-2.6 2.9s-3.2-1.9-2.6-2.9c.9-1.4 4.3-1.4 5.2 0M12.5 11c-.3.5-.1 1 .4 1 .6 0 1.1-.5 1.1-1 0-.6-.2-1-.4-1-.3 0-.8.4-1.1 1m29.4 7.7c-1.3 1.6-1.2 1.7.4.4s2.1-2.1 1.3-2.1c-.2 0-1 .8-1.7 1.7"/><path fill="#404080" fill-opacity=".4" d="M8.8 11.7c.7.3 1.6.2 1.9-.1.4-.3-.2-.6-1.3-.5-1.1 0-1.4.3-.6.6"/><path fill="#0080BF" fill-opacity=".9" d="M31.7 10.6c-.9 1.6 1.7 3.6 3.7 2.8 1.8-.7 2.1-2 .6-2.9-.6-.4-.9-.1-.8.6.2.6-.2 1.3-.9 1.6-.6.2-1.3-.4-1.5-1.4-.2-1.2-.6-1.4-1.1-.7"/><path fill="#40BFBF" fill-opacity=".9" d="M34 12c-.9.6-1 1-.3 1 .6 0 1.5-.5 1.8-1 .8-1.2.4-1.2-1.5 0"/><path fill="#000040" fill-opacity=".7" d="M11.2 14c0 1.4.2 1.9.5 1.2.2-.6.2-1.8 0-2.5-.3-.6-.5-.1-.5 1.3"/><path fill="#000040" fill-opacity=".2" d="M6.3 16.5c0 2.2.2 3 .4 1.7.2-1.2.2-3 0-4-.3-.9-.5.1-.4 2.3"/><path fill-opacity=".9" d="M19.6 15.6c-1.2 3.2-.6 5.4 1.5 5.4 1.1 0 1.7-.5 1.4-1-.4-.6-1.1-.7-1.7-.4-.8.5-.9-.3-.5-2.4.7-3.4.3-4.2-.7-1.6"/></svg>